<svg id="Layer_1" data-name="Layer 1" xmlns="http://www.w3.org/2000/svg" viewBox="0 0 1280 800"><defs><style>.cls-1{fill:#cecece;}</style></defs><path class="cls-1" d="M719.46,420.9c-2.87-2.66-5.52-5.23-8.3-7.65-3.65-3.18-3.94-4.73-.94-8.41,6-7.34,12.06-14.62,18.11-21.92a14.63,14.63,0,0,1,1.48-1.57c1.92-1.74,3-1.89,5.15-.59,5,3,8.89,6.9,10.66,12.62a21.73,21.73,0,0,0,1,2.13,9.73,9.73,0,0,0,2-1c5.28-4.52,10.56-9,15.77-13.64a8.3,8.3,0,0,1,4.29-2.39,10.71,10.71,0,0,0,3.57-1.58q5.6-3.25,11.12-6.64a42.8,42.8,0,0,1,13.45-4.93,19.62,19.62,0,0,1,6.07-.29c3.2.34,5.43,2.46,5.51,5.66a24.82,24.82,0,0,1-1.18,8.07,31.06,31.06,0,0,1-7.83,12.38Q791.42,399,783,406.31c-5,4.31-10.2,8.38-15.51,12.29-3.17,2.34-6.73,4.12-10.08,6.2a210.37,210.37,0,0,1-43.13,20.54,14.93,14.93,0,0,0-6.17,4.13c-6.66,7.08-13.47,14-20.2,21-1,1-1.85,2.09-2.77,3.13l.4.61a29.21,29.21,0,0,1,3.29-.92c3.17-.51,6.37-1.33,9.55-1.28,5.3.09,7.49,3.31,6.2,8.49A22.77,22.77,0,0,1,698.48,491a38,38,0,0,1-13.53,8.7c-2.31.91-3.78,2.15-4.33,4.72a53.28,53.28,0,0,1-2.38,6.72c1.74,1.15,3,.15,4.17-.5,6.56-3.74,13.16-7.44,19.54-11.47a100.28,100.28,0,0,0,9.63-7.53c9.34-7.66,19.45-14,30.86-18.17a28.34,28.34,0,0,1,11.27-2c6,.32,8.91,3.7,8.14,9.74a26.09,26.09,0,0,1-4.53,11.25,44.67,44.67,0,0,0-3.12,5.24,2.57,2.57,0,0,0,.27,2.23c.24.34,1.39.36,2,.11a18,18,0,0,0,3.37-2c2.52-1.85,5-3.79,7.46-5.65.9-.66,1.67-1.66,3.11-.58.38.29,1.9-.65,2.7-1.28,5.25-4.19,10.37-8.55,15.68-12.66a163.16,163.16,0,0,0,15.06-13.36c3.57-3.54,7.42-6.82,11.3-10a30.89,30.89,0,0,1,5.81-3.54c1.5-.76,3.32-1.38,4.71.05s.48,3.19-.35,4.63a20.9,20.9,0,0,1-2.91,4.09,85.25,85.25,0,0,1-8.27,8A353.84,353.84,0,0,0,777.29,501q-21.15,22.1-42.68,43.82c-9.94,10.08-20.27,19.78-30.17,29.89-18.2,18.6-36.36,37.25-54.28,56.14-13.78,14.52-27.14,29.44-39.74,45-2.11,2.61-4.52,5-6.71,7.51-1.21,1.4-2.24,2.92-.66,5,1.91.44,3.35-.83,4.64-1.95,4-3.46,8-6.86,11.69-10.66,16.19-16.89,32.35-33.8,48.31-50.91,27.24-29.21,54.21-58.69,81.53-87.85,15.67-16.72,31.86-32.94,48.88-48.31,5-4.53,10.18-8.77,16.45-11.47a22.09,22.09,0,0,1,9.74-2.23c4.72.19,6.73,2.77,5.61,7.39-.82,3.35-2.12,6.42-5.65,7.85a1.93,1.93,0,0,0-.92.53c-2.88,4.77-7.8,4.55-12.4,5.06-1.67.18-3.39.15-4.35,2.61l8.23.29a25.19,25.19,0,0,1-5.15,8.24c-2.18,2.2-4.49,4.26-6.58,6.23.33,2.2,1.38,3,3.1,2.44a30,30,0,0,0,5-1.89c10.25-5.31,20-11.41,28.59-19.2a90.69,90.69,0,0,1,28-17.36,26.34,26.34,0,0,1,10.86-2.19c5.57.27,8.28,3.43,7.64,9a19.16,19.16,0,0,1-3.14,8.34,62.47,62.47,0,0,0-3.87,6.47c-.71,1.48-1.21,3.32.31,4.68,1.36,1.23,3,.74,4.41,0a39.17,39.17,0,0,0,5.51-3.36q5.61-4.21,11-8.67a86.26,86.26,0,0,1,23-14,44.6,44.6,0,0,1,10.7-2.93c5.19-.67,7.3,2.48,5.43,7.43a18.07,18.07,0,0,1-8,9.41c-7,4-14,7.79-21.1,11.6-2.94,1.59-6,3-8.93,4.57a5.54,5.54,0,0,0-2.73,4.43c-.28,2.31.75,3.86,3.07,4a13.5,13.5,0,0,0,5.63-.8c4.41-1.85,8.94-3.65,12.93-6.23,7.53-4.89,14.88-10.11,22-15.57,6.1-4.66,11.73-9.91,17.7-14.74a9.44,9.44,0,0,1,4.82-2c2.81-.24,5.76-.63,8.86,1a27.71,27.71,0,0,1-2.59,3.82c-4.79,5-9.25,10.35-14.87,14.59a37.32,37.32,0,0,0-9.89,10.84,22.05,22.05,0,0,1-2.79,3.27,10.23,10.23,0,0,0-1.89,2.14,3.25,3.25,0,0,0-.24,2.61,2.78,2.78,0,0,0,2.44.76,19,19,0,0,0,4.69-1.77,102.19,102.19,0,0,0,10.92-6.26c6.84-4.85,13.59-9.85,20.11-15.12,7.8-6.32,16.11-11.71,25.5-15.29a31,31,0,0,1,6.94-1.82c4-.54,5.62.73,6.71,4.64a16.73,16.73,0,0,0,.77,1.72c1.51-1.06,2.92-1.88,4.12-2.92,3.29-2.87,6.88-2.89,10.82-1.48-.19,2.1-1.44,3.4-2.66,4.7-4.85,5.15-9.79,10.22-14.56,15.44-3.8,4.17-7.4,8.5-11.06,12.78a18.6,18.6,0,0,0-2.15,2.88,2.29,2.29,0,0,0-.19,1.94,2.07,2.07,0,0,0,1.83.67,27.42,27.42,0,0,0,6.09-2.11c5.64-3.17,11.23-6.45,16.68-9.93,3.43-2.19,6.56-4.85,9.86-7.25,1.13-.81,2.38-1.46,3.54-2.17,2,2.61,2,3.36.51,5.22a9,9,0,0,1-1.86,1.67c-8.09,5.37-16.12,10.85-24.34,16a38.87,38.87,0,0,1-20.12,6c-3.6.08-5.08.93-6.85-4.51-.18-.54-.47-1.06-.86-1.92-1.5.71-2.89,1.32-4.24,2a38.15,38.15,0,0,1-12.78,4.61,14.37,14.37,0,0,1-3.93,0c-2.55-.38-3.52-1.53-3.48-4.14s.27-5.45.42-8.33c-1.61-.5-2.67.65-3.88,1.26-6.75,3.39-13.44,6.88-20.26,10.11a17.36,17.36,0,0,1-6.26,1.45c-4.19.25-6.2-1.76-6.26-5.94a15.91,15.91,0,0,1,.4-4.53c.37-1.32,1.3-2.48,1.63-4.27-1.12.52-2.25,1-3.35,1.55-7.12,3.47-14.13,7.16-21.38,10.32a46.42,46.42,0,0,1-10.77,2.68,15,15,0,0,1-5.68-.38c-3.27-.74-4.57-2.66-4.48-6,0-1.32.1-2.64.26-3.94s.45-2.57.75-4.26c-1.23.09-2.14.09-3,.23-3.48.52-6.9,1.07-9.82-1.76-1.13-1.1-2.48-.53-3.63.24-2.89,2-5.7,4-8.63,5.87-6.68,4.29-13.51,8.33-21.47,9.77a30.88,30.88,0,0,1-6.79.39c-3.7-.18-5.41-1.77-6.09-5.42-.34-1.84-.44-3.73-.67-5.82a21.37,21.37,0,0,0-2.5.78c-5.14,2.31-10.21,4.8-15.42,7A72.83,72.83,0,0,1,797,523.52a11,11,0,0,1-4.59-.36,3.24,3.24,0,0,1-2.72-3c-.16-2.94-.66-6,1.36-8.62a57.18,57.18,0,0,1,5-6.14c5.25-5.1,10.69-10,16-15,2-1.86,4.24-3.5,5.11-6.38-1.4-1.27-2.76-.65-4.1-.2-5.26,1.81-9.28,5.41-13.16,9.2-4.46,4.35-8.91,8.72-13.28,13.16q-13.5,13.73-26.9,27.54c-11.17,11.56-22.47,23-33.36,34.83-13.73,14.91-27.06,30.19-40.65,45.23-16.73,18.51-33.41,37.07-50.39,55.34-8,8.59-16.21,17.1-26.31,23.35a79.09,79.09,0,0,1-11.11,5.86,21.78,21.78,0,0,1-7.36,1.22c-2.31.1-3.41-1-3.39-3.26a17.08,17.08,0,0,1,1-6.67,77.2,77.2,0,0,1,6.45-12c6.64-9.75,14.68-18.35,22.71-27,30.06-32.19,61.53-63,92.67-94.12,13.58-13.57,27.3-27,40.94-40.51.89-.89,1.71-1.85,2.56-2.77l-.33-.76a16.79,16.79,0,0,1-3,0c-2.09-.4-4.37-.57-6.14-1.58-1.94-1.11-3.18-.82-4.86.28-5.21,3.43-10.36,7-15.84,9.93a66.24,66.24,0,0,1-13,5.11,25.73,25.73,0,0,1-8.89.69c-5.08-.35-7.49-3.25-7.53-8.28v-4.07c-1.6.85-2.72,1.43-3.84,2-4.2,2.3-8.29,4.87-12.65,6.83a56,56,0,0,1-10,2.94,11.46,11.46,0,0,1-4.29,0c-4-.61-6-3.06-5.34-7a53.53,53.53,0,0,1,2.67-8.55c.53-1.46,1.38-2.8,2.05-4.2,1.23-2.53,1.21-2.56-1.51-4.89-1,.77-2,1.5-3,2.39-5.87,5.66-12,11.12-17.47,17.13-4.34,4.73-9.53,4.4-14.92,3.88-1.89-.18-2.71-1.55-2.18-3.41a13.41,13.41,0,0,1,2-3.75c.88-1.28,2-2.4,3-3.59.06-.08,0-.23.12-.8a22,22,0,0,0-2.49,1c-4.1,2.26-8.13,4.65-12.27,6.82a44.79,44.79,0,0,1-14.22,4.94,21.05,21.05,0,0,1-2.5.3c-3.95.09-7.55-.48-8.72-5.53-1.5.64-2.65,1.22-3.85,1.63-3.73,1.27-7.47,2.54-11.25,3.65a9.9,9.9,0,0,1-3.57.19c-4.75-.39-6.84-2.92-6.43-7.67.1-1.13.25-2.26.46-4.1-1.75.94-2.86,1.56-4,2.15-4.89,2.54-9.68,5.34-14.73,7.51a27.78,27.78,0,0,1-9.4,2.08c-6,.3-8.59-3.14-7.21-9a22.3,22.3,0,0,1,5.66-10.3c3.72-3.9,7.73-7.51,11.63-11.24,1.51-1.45,3.06-2.86,4.6-4.29l-.51-.7c-1.59.93-3.24,1.78-4.77,2.8a271.63,271.63,0,0,0-30.63,23.89,22.62,22.62,0,0,0-2.62,2.46c-3.92,4.88-9.2,5.63-14.94,5-3.24-.34-4.29-2-2.72-4.9a20.83,20.83,0,0,1,3.57-4.46c7.58-7.69,15.22-15.33,22.82-23,1-1,1.93-2.07,2.9-3.11l-.41-.62c-1.48.87-3,1.7-4.42,2.62a214.83,214.83,0,0,0-36.44,28.63c-4.57,4.55-9.64,5.36-15.43,4.79-2.85-.28-3.79-1.87-2.64-4.49a17.08,17.08,0,0,1,2.23-3.23c.68-.9,1.44-1.74,2.16-2.61l-.5-.63-3.66,1.9c-4.92,2.5-9.72,5.29-14.79,7.4a43.49,43.49,0,0,1-11.43,3c-7.52.89-10.53-3.18-8-10.33a29.39,29.39,0,0,1,6.31-10l3.1-3.41-.41-.66c-1.06.56-2.14,1.08-3.17,1.68-7.86,4.62-15.62,9.43-23.6,13.83a135.52,135.52,0,0,1-15.32,7.1,32.3,32.3,0,0,1-8.76,1.82c-3.84.38-7.28-.48-8.37-5.35l-3.1,1.17c-3,1.15-6,2.41-9.09,3.39a20.21,20.21,0,0,1-5.31.82c-5.79.2-8.21-2.61-7.3-8.26.17-1,.36-2.07.56-3.22-1.69-.52-2.66.58-3.74,1.15-4.14,2.17-8.13,4.68-12.41,6.54a48.69,48.69,0,0,1-11.61,3.61c-7.69,1.22-10.88-3-8.23-10.27a24.35,24.35,0,0,1,6.25-9.56c4.2-3.94,8.56-7.71,12.85-11.54,1.23-1.1,2.48-2.17,3.72-3.25l-.47-.74c-1.18.65-2.4,1.26-3.55,2a255.21,255.21,0,0,0-32.65,24.19c-2.09,1.79-4.19,3.59-6.27,5.4-4.22,3.68-9.21,2.76-14.07,2.26a2,2,0,0,1-1.61-3,13.29,13.29,0,0,1,2.62-4.19c3.27-3.35,6.7-6.54,10.12-9.73,1.46-1.36,2.47-2.69,2.22-4.95-.31-2.77,1.46-4.67,3.6-6.23,5-3.69,10-7.5,15.07-11.09a156.42,156.42,0,0,0,17.55-14.32c15.31-14.55,30.6-29.12,46.06-43.49,19.46-18.08,39.9-34.95,62.28-49.34,6.25-4,12.8-7.58,19.35-11.09a49.72,49.72,0,0,1,10-4,22.44,22.44,0,0,1,7.8-.56c3.61.33,5.37,2.58,4.85,6.22A28.46,28.46,0,0,1,483,376.5a45.28,45.28,0,0,1-9.57,13A172.86,172.86,0,0,1,446,411.57,546.7,546.7,0,0,1,380.9,448.5a47.34,47.34,0,0,0-13,8.8c-5.58,5.44-11.45,10.58-17.18,15.87-1.1,1-2.11,2.11-3.16,3.17l.45.62c1.17-.49,2.32-1,3.5-1.46,3.15-1.16,6.25-2.49,9.49-3.33a15.34,15.34,0,0,1,6-.18,4.52,4.52,0,0,1,4,5.76,21.74,21.74,0,0,1-2.13,5.69,42.07,42.07,0,0,1-9.6,11.57c-4.59,4.05-9.21,8.06-13.79,12.12-1.13,1-2.15,2.13-3.22,3.2l.45.74a36.34,36.34,0,0,0,3.48-1.35c9.93-5.13,19.67-10.59,28.44-17.57a116.78,116.78,0,0,1,27.09-16.22,77.21,77.21,0,0,1,12.69-3.88c3.53-.84,6.77-.17,8.29,4.27,1.19-.58,2.26-1,3.23-1.58a14.7,14.7,0,0,1,9.41-1.61c2.77.32,3.65,1.85,2.19,4.23a27.58,27.58,0,0,1-4.55,5.51c-8.62,8.17-17.34,16.23-26,24.34-1.19,1.12-2.3,2.33-3.7,3.76a4.18,4.18,0,0,0,4.06-.53c6.53-3.54,13.31-6.73,19.45-10.86,8.65-5.82,16.81-12.36,25.2-18.55a10.35,10.35,0,0,0,3.75-5.49c2.49-7.8,8.15-12.48,15.71-15.09a7.65,7.65,0,0,1,1.76-.36c4.52-.5,6.64,2,5.35,6.3-.43,1.46-1.07,2.85-1.61,4.27a6.62,6.62,0,0,0,1.1.7c4.28,1.48,5.51,3.33,3.92,7.52a29,29,0,0,1-5,8.21c-2.95,3.45-6.38,6.5-9.66,9.66-4.07,3.91-8.21,7.74-12.29,11.63-.83.79-1.55,1.71-2.31,2.57.13.23.26.46.4.69,1.39-.5,2.83-.92,4.18-1.53a148.5,148.5,0,0,0,27.37-16.53c7.66-5.77,15.21-11.7,22.71-17.69,3.79-3,8-3.5,12.57-3,2.16.25,2.77,1.51,2.05,3.62-.2.56-.55,1.06-.77,1.62-.17.4-.24.85-.57,2.08,1.7-.89,2.78-1.51,3.91-2,4.12-1.9,8.19-4,12.44-5.57a16.81,16.81,0,0,1,6.72-.72c3.14.18,4.41,1.95,4.12,5.1-.12,1.27-.39,2.54-.71,4.59,1.68-.85,2.78-1.42,3.89-2,4.52-2.21,9-4.64,13.6-6.53a19.8,19.8,0,0,1,7.72-1.26c4.34.11,6.53,3.09,5.55,7.34a17.37,17.37,0,0,1-2.63,6.24,87.9,87.9,0,0,1-8.39,9.79c-4,4-8.28,7.66-12.41,11.49a12.67,12.67,0,0,0-3.09,4.12,8.83,8.83,0,0,0,2.16-.48c9.67-5.07,19.31-10.18,27.53-17.57a96.66,96.66,0,0,1,27-17,82.91,82.91,0,0,1,10.59-3.46c4.22-1.16,8.19-1.13,10.27,3.94a28.17,28.17,0,0,0,2.72-1.4c3-2,6.33-2.09,9.71-1.69,2.72.32,3.55,1.81,2.19,4.29a23.29,23.29,0,0,1-3.87,5.13c-8.41,8.39-16.91,16.68-25.37,25-1,1-1.9,2.05-3.06,3.3,1.8.84,3,.07,4-.5,6.28-3.5,12.7-6.81,18.72-10.7,20-12.92,37.43-28.8,53.36-46.4.76-.84,1.42-1.76,2.65-3.28-2.09-.15-3.35-.27-4.61-.33a46.8,46.8,0,0,1-14.11-2.6c-11.42-4.28-16.54-13.4-13.38-25.14,5.11-18.91,17.86-30.41,36.36-35.9,1.67-.49,3.71-1.14,4.88.86,1,1.74-.33,3.16-1.23,4.57-1.26,1.94-3.21,2.78-5.26,3.55a33.74,33.74,0,0,0-18.93,17.27,27,27,0,0,0-1.13,2.65c-4.42,11.93,2.12,22.32,14.82,23.36a82.1,82.1,0,0,0,11.84.12,8.39,8.39,0,0,0,4.81-2.06c4.87-4.45,9.52-9.14,14.23-13.76A13.48,13.48,0,0,0,719.46,420.9Zm-322,8,.46.58c1.16-.58,2.37-1.1,3.49-1.76,5.79-3.4,11.64-6.71,17.31-10.3,11.65-7.39,23.19-14.95,33.86-23.74a70.16,70.16,0,0,0,12.73-13.15c.93-1.29,2.15-2.58,1.6-4.62-2.7-.29-4.7,1.13-6.71,2.29A185.41,185.41,0,0,0,432.4,397.4c-11.3,9.67-22.2,19.78-33.26,29.71A23.86,23.86,0,0,0,397.47,428.92ZM843,516.55a55.53,55.53,0,0,0,6.5-3.1c7.62-4.7,14-10.82,19.92-17.51a13.51,13.51,0,0,0,1.94-3.78c1-2.3,1.9-4.63,2.72-7,.29-.82.6-2.23.21-2.56a3.39,3.39,0,0,0-2.84-.64,27.39,27.39,0,0,0-5.69,3c-4,2.8-8,5.72-11.91,8.68a65.12,65.12,0,0,0-6.06,5,31.27,31.27,0,0,0-8.4,14C838.62,515.27,839.52,516.62,843,516.55Zm137-1.32a13.69,13.69,0,0,0,3-1,72.16,72.16,0,0,0,8.55-5.24c7.28-5.59,13.08-12.62,18.63-19.86a11.13,11.13,0,0,0,1.61-2.79c.3-.84.64-2.24.24-2.61a3.34,3.34,0,0,0-2.85-.72c-2.54,1-5.29,1.92-7.34,3.61-6.19,5.09-12.31,10.31-18,15.94-2.57,2.53-4.22,6.06-6,9.31C976.8,513.84,977.68,515.14,980,515.23Zm-265.94-2.58c2.75.44,4.67-.89,6.58-2,6.09-3.68,11.24-8.52,16.55-13.21,3.82-3.37,4.76-7.75,6.15-12.24C734.6,486.13,714.92,504.56,714.09,512.65ZM409,484.91c-3.56,0-6.19,1.41-13.66,7-10.22,7.67-17.78,15.29-18.94,19.23a4.72,4.72,0,0,0,1.73,0,49,49,0,0,0,5.76-2.86c8.93-5.53,16.17-13,23.29-20.6A21.15,21.15,0,0,0,409,484.91Zm206.33-.18c-7.46.88-29.36,19.65-31.06,26.52,3.17.19,5.41-1.73,7.74-3.23C600.22,502.7,613.25,489.7,615.29,484.73ZM751.4,416.81c-1.2-1.23-2.19-2.4-3.33-3.39-2.12-1.82-2.56-1.83-4.51.05q-7.37,7.09-14.62,14.29a13.83,13.83,0,0,0-1.42,2.09C732.47,428.82,747.54,420.62,751.4,416.81Zm41.35-40.38c-6.16,1.48-10.9,4.65-15.55,8.35l4.15,7.36C786.32,389.23,792.55,380.88,792.75,376.43Zm119.74,118a5.19,5.19,0,0,0,1.43,0,50.42,50.42,0,0,0,13.44-8.1,7.39,7.39,0,0,0,1.75-2.23,1.42,1.42,0,0,0-1.77-2.07,9.3,9.3,0,0,0-3.14,1.66c-3.48,2.9-6.88,5.91-10.28,8.91A13.86,13.86,0,0,0,912.49,494.46Zm-238.56-2.85c4,.41,8.7-2.49,9.92-6A26.12,26.12,0,0,0,673.93,491.61Zm340.16-.41c-2.52.73-2.73,2.39-2.53,4,.05.49,1.17,1.22,1.75,1.18a2.11,2.11,0,0,0,1.53-1.43A18.46,18.46,0,0,0,1014.09,491.2Zm-42.46,27.38-.08-1.1-5.06.49.06.61ZM767.81,415.18l.09.06,4-3.7-.25-.25Zm-54-2.59.26-.39-1-.74-.23.26Z"/><path class="cls-1" d="M259.85,451.59c1.49,1.78,2.63,3.15,3.79,4.5,6.71,7.82,8.42,16.69,5.89,26.58-3.45,13.48-11,24.15-22.09,32.33-15.68,11.58-33.42,15.86-52.68,13.85-11.58-1.21-20.73-7.07-28.3-15.66-4.3-4.87-3.05-4.8-9.52-2.11-14.65,6.1-29.57,11.34-45.32,13.87-7.5,1.21-15,1.73-22.57.41a34.24,34.24,0,0,1-7.58-2.17c-6.54-2.79-9.61-8.34-8.47-15.37a36.53,36.53,0,0,1,2.29-7.91c3.2-7.84,8.55-14.11,14.91-19.57,8.82-7.57,18.86-13.18,29.33-18.08a325.54,325.54,0,0,1,40.31-15.41,7.62,7.62,0,0,0,5.14-4.06c15.09-31.69,37.47-57.53,64.3-79.77a443.71,443.71,0,0,1,55.86-40c26.53-15.79,54.53-28.19,84.43-36.17a163.84,163.84,0,0,1,47-5.65,73.45,73.45,0,0,1,20.55,3.31c5,1.6,9.67,3.73,13.22,7.69,1.78,2,3.58,2.3,6.06,1.49a103.08,103.08,0,0,1,26.09-5,43.17,43.17,0,0,1,22.61,4.74c3.3,1.69,3.65,3.15,1.38,6.19s-4.15,3.84-7.07,2.37c-9.93-5-20.25-4.21-30.64-2.34-3.18.57-6.27,1.61-9.39,2.45-1.63.43-2.43,1.33-2.06,3.15,2.05,10.16-.85,19.5-4.92,28.59a105.51,105.51,0,0,1-17,26.15c-21.23,24.39-47.1,41.73-78.15,51.11a95.91,95.91,0,0,1-30.91,4.13A40.75,40.75,0,0,1,312.9,413a4.67,4.67,0,0,0-5.27.93c-14.32,12.44-29.55,23.73-44.76,35C261.93,449.65,261.1,450.49,259.85,451.59ZM295.52,403a18.51,18.51,0,0,0-1.14-2.12c-4.07-5.62-4.89-11.84-3.56-18.5a49,49,0,0,1,5.73-14.69c8.86-15.52,21.93-26.47,37.72-34.41a6.67,6.67,0,0,1,2.34-.87,18,18,0,0,1,3.33.35c-.15,1.12,0,2.38-.5,3.32a12.07,12.07,0,0,1-5.56,4.92,66.44,66.44,0,0,0-25.18,22.58,43,43,0,0,0-6.75,15,16,16,0,0,0,1.19,10.87c2.23,4.38,3.2,4.59,6.8,1.41.36-.31.71-.64,1.07-1,12.06-10.45,24-21.07,36.2-31.31a416,416,0,0,1,88.19-56.66,25.89,25.89,0,0,0,2.48-1.6,40.66,40.66,0,0,0-3.32-2.94c-5.24-3.72-11.26-5.25-17.52-6-12.56-1.48-24.93.1-37.19,2.59-27.26,5.54-52.89,15.56-77.29,28.81-25.11,13.64-47.94,30.52-69.5,49.17-15.21,13.16-29.28,27.41-40.68,44-4.8,7-8.83,14.54-13.11,21.9-.72,1.24-1.74,2.62-.88,4.62,1.31-.17,2.58-.31,3.85-.49,3.56-.51,7.11-1.38,10.68-1.49,10.91-.35,21.82-.55,32.74-.53a43.59,43.59,0,0,1,16.51,3.27,5.92,5.92,0,0,0,6.58-1c15.07-11.7,30-23.62,44-36.54C293.72,404.87,294.59,403.91,295.52,403Zm146-93.66c-1.53.62-3,1.09-4.32,1.75a243.05,243.05,0,0,0-41.35,26c-17,13.17-33.23,27.17-49,41.77-7.21,6.69-14.57,13.21-21.83,19.84a45.07,45.07,0,0,0-3,3.44c1.93.56,3.16,1,4.42,1.26,5.72,1.08,11.47.77,17.21.2,11.55-1.16,22.09-5.36,32.09-11,20.74-11.74,37.33-28,51-47.35,4.34-6.14,7.91-12.85,11.54-19.45a47.76,47.76,0,0,0,3.43-9.06A10.24,10.24,0,0,0,441.49,309.31ZM159.12,456.86c-1.78.35-2.82.47-3.81.76-17.89,5.16-34.72,12.6-49.83,23.57a121.63,121.63,0,0,0-11.74,10,23.24,23.24,0,0,0-6.2,9.58c-1.59,4.79-.22,8.76,4.26,10.89A22.35,22.35,0,0,0,100,514a84.67,84.67,0,0,0,15.44-.28c14.31-1.84,27.48-7.44,40.62-13.07,1.8-.77,2.18-1.93,1.6-3.73-3.77-11.85-2.79-23.67.29-35.47C158.31,460.16,158.61,458.9,159.12,456.86Zm17.76,45.3c1,1.36,1.64,2.35,2.41,3.22a35,35,0,0,0,19.43,11.56A48.28,48.28,0,0,0,226,515.28c16-6,26-17.55,29.84-34.21a20.34,20.34,0,0,0-3.56-16.76c-3.15-4.43-3.8-4.51-8.31-1.56-20.68,13.53-41.56,26.72-63.88,37.47C179.18,500.68,178.31,501.3,176.88,502.16Zm55.89-47.8c-3.63-2.8-7.19-3.35-10.71-3.75-15.5-1.76-30.87-.59-46.15,2.36a5.31,5.31,0,0,0-4.46,4.06,67.64,67.64,0,0,0-3.54,20.1A50.46,50.46,0,0,0,169,488.51c1.31,5.67,1.72,5.7,6.91,3,19.38-10.18,37.3-22.59,54.74-35.74C231.35,455.24,232.07,454.82,232.77,454.36Z"/><path class="cls-1" d="M1045.93,259.26c-1.26.27-2.53.48-3.76.83a65.06,65.06,0,0,0-21.39,10.82,212.11,212.11,0,0,0-27.34,25c-3.19,3.41-6.45,6.77-9.67,10.17C965,325.9,942,339.14,917.06,349.56a62,62,0,0,1-6.81,2.32c-1.41.4-3,.43-3.67-1.29-.62-1.57.22-2.81,1.47-3.7,1.07-.76,2.24-1.4,3.38-2.06,10.78-6.26,21.78-12.16,31.82-19.65,12.75-9.53,23.92-20.73,34.53-32.51,9.79-10.87,19.09-22.19,29-32.91,6.92-7.46,14.37-14.46,21.95-21.26a82.75,82.75,0,0,1,26.46-15.74c3.6-1.35,4.28-1,5.7,2.47a22.54,22.54,0,0,1,.61,15.86,70.57,70.57,0,0,1-5.48,12.46c-6.48,11.42.18,25.08,13.22,26.31,9.06.86,17.45-1,24.18-7.71a6.49,6.49,0,0,0,1.77-2.22,3.74,3.74,0,0,0-.16-2.9,3.68,3.68,0,0,0-2.72-1.09,10,10,0,0,0-3,1,17.84,17.84,0,0,1-11.32.45c-5.33-1.53-7.77-5.81-6.17-11.11a26.86,26.86,0,0,1,3-6.88c4.58-7,9.39-13.9,14.14-20.82a12.91,12.91,0,0,1,1.7-1.85c5.91-5.7,12.68-5.54,18.31.48a22.83,22.83,0,0,1,6.3,15.28,37.35,37.35,0,0,1-2.13,13.8c-6.86,19.53-17,37-32.68,50.88-8.14,7.21-17.3,11.47-28.4,11.11-9.73-.32-15.72-4.65-18.65-13.94a42.15,42.15,0,0,1-.6-21.7,15.06,15.06,0,0,1,2.05-4.56c3.16-5.1,6.43-10.12,9.65-15.17.63-1,1.25-2,1.87-2.95Zm-96.88,71.86,2.67-1.36-.43-.59-2.16,2-3,1.12.34.62Zm128.08-23.83a3,3,0,0,0,2.52-2.68l-2.44,2.77-2.35,1.19.48.63ZM1018.89,270l12.27-7.93,17.72-6.11a25.36,25.36,0,0,0-7.36,1.35c-3.52,1.38-6.87,3.2-10.29,4.82-4.77,1.24-8.55,4.13-12.17,7.29-.12.11-.06.44-.1.66l-2.47,1.06c.14.21.27.42.4.64Zm-110.8,80.19c10.76-2.31,20.32-7.41,29.77-12.76A258.56,258.56,0,0,1,908.09,350.16Zm163.18-38.46-.25-.42-1.59,1,.21.31ZM941.06,335.31c.11.19.23.37.35.55l1.68-1.24-.26-.32Zm153.39-72.61-.36.51,1.82,1c.07-.15.15-.29.22-.44Zm-85.15,15.2-.19-.24-.87.75.16.2Zm5.47-4.15-.62-.57-1.23,1.34Z"/><path class="cls-1" d="M657.48,249.34a24.83,24.83,0,0,1-1,4.67,49,49,0,0,1-3.26,6c-5.22,8.77-10.33,17.61-14,27.13a111.4,111.4,0,0,0-5.38,17.12c-1.73,8.09-.42,15.83,5.47,22.16,4.39,4.72,10.12,7.17,16.24,8.73a49.26,49.26,0,0,0,21,.81,93.31,93.31,0,0,0,34.06-12.81,95,95,0,0,0,27.58-27,11.81,11.81,0,0,0,2.28-5.16c.91-10,5.3-18.63,10.37-27a24.9,24.9,0,0,0,3.48-9c1-6.27,2.1-12.54,3.31-18.78a51.53,51.53,0,0,1,2.31-8.67,25.6,25.6,0,0,1,3.51-5.77c1.47-2,3.63-2.17,5.87-1.61s2.95,2.39,3.27,4.31a18.11,18.11,0,0,1,.25,5.34,53.84,53.84,0,0,1-1.71,8.45c-2.64,9-5.4,17.91-8.2,26.83a12.69,12.69,0,0,0,2,12.21c2.52,3.29,5.66,4.11,9.52,2.58a13.38,13.38,0,0,0,6.23-5.24c1.92-2.9,3.65-5.92,5.51-8.86.85-1.33,1.83-2.52,3.72-2.33,1.54.16,2.58.8,2.58,2.4a13.07,13.07,0,0,1-.46,3.9c-4.29,13.3-9.5,26.19-18.33,37.23a37.48,37.48,0,0,1-8.16,7.49A24.13,24.13,0,0,1,756.9,318c-5,1-9.21-.78-12.34-4.88l-2.25-3c-1.06,1.33-1.93,2.37-2.75,3.46-5.59,7.5-10.84,15.28-16.81,22.45a116,116,0,0,1-31.18,26.36,80.39,80.39,0,0,1-36.48,11.15,45.89,45.89,0,0,1-13.91-1.44c-16.6-4.29-26.42-16.41-26.68-33.54a68.7,68.7,0,0,1,1.61-15c2.45-11.8,6.92-22.94,12.17-33.77a276.12,276.12,0,0,1,22.81-37.87c.48-.69,1-1.33,1.53-2C653.72,248.53,655,248.05,657.48,249.34Zm57.74,91.78c-2.45,1.84-4.57,4.24-8,4.12-.2,0-.42.22-.63.33a94.19,94.19,0,0,1-27.72,9.6c-10.28,1.91-20.54,1.8-30.6-1.26-4.33-1.31-8.84-2.71-11.54-6.8-7.47-11.33-11.62-23.63-10.24-37.36.59-5.8.75-11.76,3.86-17,.13-.22,0-.61-.1-1-.31.2-.6.28-.68.46-1.23,2.59-2.56,5.15-3.6,7.82-1,2.44-2.1,5-2.29,7.52-1.11,14.42,2,27.86,10.08,40a24.83,24.83,0,0,0,10.53,9,52.11,52.11,0,0,0,29.8,4.3q5.52-.78,11-1.63c2-.31,3.89-.47,4.66,2.1A91.66,91.66,0,0,0,715.22,341.12Zm21-26c1.56-2.46,1.52-3.42-.26-3.83-2.92-.68-5.9-1.06-8.56,1.1-6.22,5.07-12.52,10-18.73,15.14a50.51,50.51,0,0,1-19,9.95c-3.27.88-6.83.78-10.26.94-1.88.08-3.77-.28-5.66-.32-4-.08-7.89,0-11.84-.15-2-.06-3.91-.36-5.87-.55a17.74,17.74,0,0,0,4.65,4.55,21,21,0,0,0,15.63,3.74,63.52,63.52,0,0,0,18.76-6,104.44,104.44,0,0,0,26.14-18.88,40.74,40.74,0,0,1,7.08-5.46C730.77,313.92,733.47,313.1,736.27,315.14ZM764.57,225l-1-.29c-1.8,2-2.34,4.47-2.58,7.07-.29,3-.18,6.05-.86,8.94-1.68,7.09-3.37,14.22-5.73,21.11a28.07,28.07,0,0,0-1.76,10.82c.4,7.29.94,14.59,1,21.88,0,4.11,1.07,7.42,4.21,10.21,2.64,2.34,5.52,4.55,6.82,8.05,4.59-2.61,8-6.37,9-10a13.16,13.16,0,0,0-2-.51c-2.38-.27-4.8-.28-7.14-.73-4.91-1-7.19-3.81-7.14-8.75a89.82,89.82,0,0,0-1.11-13.59c-1-6.78-1.24-13.75,1.45-20.23,3.64-8.78,5-18,6.05-27.28C764.11,229.5,764.33,227.26,764.57,225ZM636.71,367.73a11.24,11.24,0,0,0-1.19-.74c-2.63-1.17-4.6-2.74-4.88-6-.11-1.33-1.06-2.64-1.79-3.88-4.52-7.67-8.37-15.61-10-24.46-.21-1.11-.63-2.18-1.12-3.82C613.4,345.5,620.38,362.88,636.71,367.73Z"/><path class="cls-1" d="M858.09,296.44a81,81,0,0,1,3.38-20.2c7.64-27.38,16.18-54.48,25.89-81.2,3.16-8.71,7.94-16.65,12.8-24.51,1.76-2.83,2.8-3.29,4.48-2.57,1.39.6,1.61,2,.65,5.16-5.31,17.31-10.9,34.53-15.85,51.94-3.34,11.75-5.83,23.74-8.58,35.65a26.39,26.39,0,0,0-.38,11.43c.63,2.94,2,5.39,4.86,6.72a7.63,7.63,0,0,0,5.9.22,16.58,16.58,0,0,0,9.43-7.86,65.81,65.81,0,0,1,4.07-6.35c1-1.3,2.25-2.92,4.15-2.05,1.74.8,1.8,2.75,1.6,4.44a22.8,22.8,0,0,1-1.11,4.89c-3.37,9.64-7.16,19.12-12.66,27.76a92.05,92.05,0,0,1-8.86,11.27,22,22,0,0,1-9.3,6c-8.11,2.86-14.88-.12-18.14-8.07a24.4,24.4,0,0,1-1.5-5.16C858.5,301.46,858.36,298.94,858.09,296.44Zm11.64-27.29,1-.1c.22-1,.43-2,.65-3,1.92-8.53,3.7-17.09,5.83-25.57,1-4,2.85-7.88,4.08-11.89,3.24-10.53,6.36-21.1,9.5-31.66.69-2.32,1.28-4.67,1.92-7l-.85-.28c-1.05,2.5-2.25,4.95-3.13,7.51-5.23,15.17-10.57,30.31-14.32,46-.5,2.06-1.6,4-2.28,6-1.52,4.54-3.07,9.06-4.36,13.66C867.05,265.19,868.16,267.33,869.73,269.15Zm14.35,42.3c.16.17.31.35.46.53l2.68-2.4-.37-.41Z"/><path class="cls-1" d="M1130.72,156.89c.87-1,1.77-1.89,2.59-2.89,4.44-5.34,8.86-10.71,13.3-16.06a27.53,27.53,0,0,1,2.46-2.61,3.07,3.07,0,0,1,4-.47c5.08,3,9.24,6.81,11.17,12.62a14,14,0,0,1-1,11.81,55.12,55.12,0,0,1-15.63,17.14c-3.61,2.63-5.88,2.28-9.28-.84-4-3.65-7.88-7.34-12.11-11.3-.91.89-1.73,1.67-2.54,2.48-2.86,2.9-5.69,5.83-8.59,8.68a17.2,17.2,0,0,1-2.84,2.19c-3.62,2.35-5.83,2.17-9-.72s-6.35-5.84-9.53-8.74c-2.59-2.36-2.88-4.06-.74-6.83,2.41-3.14,5-6.13,7.51-9.18q5.38-6.53,10.77-13a32,32,0,0,1,2.45-2.63,3.19,3.19,0,0,1,4.26-.39c7.09,4.29,11.85,10,11.9,18.78,0,.57.09,1.13.13,1.7Zm24.45,10.88-.14-.13-3.33,3-.1-.12Zm-58.18-.43-.65.64,1,.83.66-.66Z"/><path class="cls-1" d="M969.89,178.3a5,5,0,0,1,.78,5.42c-5.76,14.92-9,30.56-13.15,45.94-3,11.1-6.06,22.2-9.46,33.18-4.41,14.23-11.85,27-20.43,39a48.43,48.43,0,0,1-4.45,5.16,6.45,6.45,0,0,1-2.35,1.59,2.18,2.18,0,0,1-3.14-2.49,7.17,7.17,0,0,1,.8-2.36c8.1-15.56,12.59-32.35,16.9-49.2,2-8,3.83-16.08,5.84-24.1a93.87,93.87,0,0,1,12.1-28.69c4.11-6.33,7.82-12.92,11.76-19.36C966.19,180.6,967.35,178.75,969.89,178.3ZM919.33,306.69l.48.75,2.05-1.49-.32-.49Z"/><path class="cls-1" d="M854,250.83a44.65,44.65,0,0,1-2.83,15.52,116.58,116.58,0,0,1-19,33.67,35.72,35.72,0,0,1-17.38,12.24q-8.42,2.64-16.83,5.22a8.62,8.62,0,0,1-1.4.33c-1.46.21-3,.35-3.7-1.33a3.08,3.08,0,0,1,1.28-3.8c2.68-2,5.44-3.92,8.23-5.77a149.19,149.19,0,0,0,21-16.29,64,64,0,0,0,5-5.18c3.56-4.23,3.94-6.64,1-11.4a101.18,101.18,0,0,0-7.75-10.3c-1.27-1.58-2.93-2.83-4.35-4.29-1.8-1.84-2-3.18-.89-5.52a16,16,0,0,1,.88-1.56c5.3-8.56,10.57-17.14,15.92-25.67,2.71-4.34,4.93-4.59,8.44-.86a102.7,102.7,0,0,1,6.94,8.23A26.2,26.2,0,0,1,854,250.83Zm-16.48-26.07a6.1,6.1,0,0,0-2.76,5.76c.16,3.57,0,7.16-.16,10.73-.14,2.87-.6,5.72-.84,8.58-.43,5.13,1.23,9.95,2.21,14.87s1.58,9.88-1,14.4a49.33,49.33,0,0,1-6.89,9.56,144.58,144.58,0,0,1-11.35,10.49,127.89,127.89,0,0,1-18.92,13.57,7.83,7.83,0,0,0-3.76,3.93c10-3.11,19.69-4.71,28.31-9.8-2.63-3.6-2.69-3.64-.4-7.13a34.05,34.05,0,0,1,3.74-4.79c3.29-3.49,6.85-6.72,10-10.31,3.68-4.17,6.15-8.88,4.56-14.77-1-3.57-1.82-7.18-2.89-10.72-1.3-4.31-2-8.62-1.07-13.1,1-4.7,1.87-9.41,2.69-14.13A8.68,8.68,0,0,0,837.54,224.76Zm-19.89,32,12,12.95c-.23-3.78,0-7.29-2.17-10.33-2-2.87-2.31-6.8-5.53-9.1C819.53,251.93,819,254.59,817.65,256.76Z"/><path class="cls-1" d="M883.42,391.26c-.83,2.34-1.36,4.84-2.55,7a53.55,53.55,0,0,1-15.12,16.59c-3.77,2.83-6.06,2.49-9.56-.71-3.09-2.82-6.14-5.69-9.25-8.49-2.62-2.37-2.93-4-.82-6.8s4.38-5.38,6.59-8.06c4-4.8,7.91-9.61,11.9-14.38a12.53,12.53,0,0,1,2.79-2.75,4.06,4.06,0,0,1,3-.42C876.87,375.39,882.91,384.1,883.42,391.26Z"/><path class="cls-1" d="M718.57,264.72A23.08,23.08,0,0,1,714,276.78a61.17,61.17,0,0,1-13.81,13.49c-2.75,2.06-4.93,1.81-7.07-.33l-11.67-11.67c-3-3-3.28-4.67-.71-8.12,5.49-7.4,11.12-14.69,16.71-22a14.56,14.56,0,0,1,1.43-1.61,4.2,4.2,0,0,1,5.8-.48c3.62,3.11,7.24,6.26,10.61,9.63C718,258.33,718.67,260.7,718.57,264.72Zm-13.89,19.54c1-.82,1.87-1.43,2.62-2.18,1-1,1.91-2.09,3-3.33-2.43-1.32-4.72-2.32-6.75-3.7-3.91-2.64-5.24-5.23-3.86-9.4.6-1.82,1.34-3.59,2-5.38,1.28-3.35,2.61-6.69,2.54-10.39,0-1.53-.71-2.83-2.16-2.71-.87.06-1.68,1.39-2.44,2.22a1.49,1.49,0,0,0-.14,1c.75,4.53-.63,8.79-1.56,13.11C696.25,271.56,698.25,278.41,704.68,284.26Zm-18.83-4.69,1-.47c-.32-1.55-.2-3.45-1.07-4.57-1.41-1.81-2.65,1-4.29.91Z"/><path class="cls-1" d="M999.73,438.18c.25-5.44,4.63-10.53,9.83-11.34,2.09-.32,4.14-.27,5.42,1.81,1,1.71.59,4.66-1.07,6.31-2.72,2.7-5.54,5.21-9.3,6.55C1001.26,442.7,999.57,441.72,999.73,438.18Z"/></svg>