<?xml version="1.0" encoding="utf-8"?>
<!-- Generator: Adobe Illustrator 25.0.0, SVG Export Plug-In . SVG Version: 6.00 Build 0)  -->
<svg version="1.1" id="Layer_1" xmlns="http://www.w3.org/2000/svg" xmlns:xlink="http://www.w3.org/1999/xlink" x="0px" y="0px"
	 viewBox="0 0 182.3 17.1" style="enable-background:new 0 0 182.3 17.1;" xml:space="preserve">
<style type="text/css">
	.st0{clip-path:url(#SVGID_2_);}
	.st1{clip-path:url(#SVGID_4_);}
</style>
<g>
	
		<image style="overflow:visible;" width="208" height="43" xlink:href="FDE5818FF3E66B50.png"  transform="matrix(1 0 0 1 -13 -12.9)">
	</image>
	<g>
		<g>
			<defs>
				<path id="SVGID_1_" d="M3.7,15.7c-0.4,0.2-0.8,0.4-1.2,0.6c-0.5,0.2-1,0.3-1.6,0.3c-0.2,0-0.5,0-0.7-0.1C0.1,16.4,0,16.3,0,16.1
					c0-0.1,0-0.2,0.1-0.3c0.1-0.1,0.1-0.2,0.2-0.2c0,0,0.1,0,0.1,0.1c0.1,0.1,0.2,0.1,0.4,0.1h0.6c0.3,0,0.6-0.1,0.8-0.3
					c0.2-0.2,0.4-0.4,0.5-0.7c0.1-0.3,0.1-0.7,0.2-1c0.1-0.4,0.1-0.9,0.1-1.5s0.1-1.3,0.1-2S3,8.8,3,8c0-1.9,0-3.3-0.2-4.3
					c0-0.6-0.1-1.2-0.4-1.8C2.3,1.8,2.1,1.7,1.9,1.7c-0.2,0-0.5-0.1-0.7-0.1H0.6c-0.1,0-0.2,0-0.2-0.1c0-0.1-0.1-0.1-0.1-0.2
					c0-0.3,0.1-0.4,0.3-0.4h0.5L2,1h1h1c0.3,0,0.7-0.1,1-0.2l1-0.4c0.4-0.2,0.7-0.3,1.1-0.4c0.5-0.1,0.9-0.2,1.4-0.2
					c1.2,0,2.4,0.2,3.6,0.6c0.9,0.3,1.8,0.9,2.5,1.6c0.6,0.7,1.1,1.5,1.4,2.3c0.3,0.9,0.5,1.8,0.5,2.7c0,1.1-0.2,2.3-0.6,3.3
					c-0.4,1.1-0.9,2.1-1.7,3c-0.7,0.9-1.6,1.6-2.6,2.1c-1.1,0.6-2.2,0.8-3.4,0.8c-0.3,0-0.7,0-1-0.1c-0.4,0-0.8-0.1-1.2-0.2
					s-0.8-0.2-1.2-0.3C4.4,15.8,4,15.8,3.7,15.7z M8.7,15.7c0.8,0,1.5-0.2,2.2-0.6c0.6-0.4,1.2-0.9,1.6-1.6c0.4-0.7,0.7-1.5,0.9-2.3
					c0.2-0.9,0.3-1.7,0.3-2.6c0-0.9-0.1-1.9-0.4-2.7c-0.2-0.9-0.6-1.7-1.1-2.5c-0.5-0.7-1.1-1.3-1.8-1.8C9.7,1.1,8.9,0.9,8,0.8
					c-0.2,0-0.4,0-0.6,0C7.2,0.9,7,0.9,6.8,1C6.6,1.1,6.4,1.3,6.2,1.4C6,1.6,5.9,1.8,5.9,2C5.8,2.3,5.8,2.5,5.7,2.8
					c0,0.3-0.1,0.7-0.1,1.1S5.6,4.8,5.6,5.3s0,1,0,1.6c0,1.2,0,2.2,0,3.1s0,1.5,0,2s0,0.9,0,1.1c0,0.2,0,0.3,0.1,0.5
					c0,0.3,0.1,0.5,0.3,0.7c0.2,0.2,0.4,0.5,0.6,0.6c0.3,0.2,0.6,0.4,0.9,0.5C7.9,15.6,8.3,15.7,8.7,15.7L8.7,15.7z M25.3,16.4
					c-1.1,0-2.1-0.2-3.1-0.5c-0.9-0.3-1.8-0.8-2.5-1.4c-0.7-0.6-1.3-1.4-1.7-2.3c-0.4-1-0.6-2-0.6-3.1c0-1.2,0.2-2.4,0.7-3.5
					c0.5-1,1.1-1.9,1.9-2.7c0.8-0.7,1.7-1.3,2.7-1.7c1-0.4,2.1-0.6,3.2-0.6c1,0,2,0.2,3,0.5c0.9,0.3,1.8,0.7,2.5,1.3
					c0.7,0.6,1.3,1.3,1.7,2.2c0.4,0.9,0.7,2,0.6,3c0,1.1-0.2,2.2-0.6,3.2c-0.4,1-1,2-1.8,2.8c-0.8,0.8-1.7,1.5-2.7,2
					C27.7,16.2,26.5,16.4,25.3,16.4L25.3,16.4z M25.9,15.6c0.7,0,1.5-0.2,2.1-0.6c0.6-0.4,1.1-0.9,1.5-1.5c0.4-0.7,0.7-1.4,0.9-2.2
					c0.2-0.9,0.3-1.8,0.3-2.6c0-1-0.1-2-0.4-3c-0.2-0.8-0.6-1.6-1.1-2.3c-0.4-0.6-1-1.1-1.6-1.5c-0.6-0.3-1.3-0.5-2-0.5
					c-0.7,0-1.5,0.2-2.1,0.5c-0.6,0.4-1.1,0.9-1.5,1.5c-0.5,0.7-0.8,1.4-1,2.2c-0.2,0.9-0.3,1.8-0.3,2.8c0,1.1,0.1,2.2,0.4,3.3
					c0.2,0.8,0.6,1.6,1.1,2.3c0.5,0.6,1,1,1.7,1.4C24.5,15.5,25.2,15.6,25.9,15.6L25.9,15.6z M44,7.6c-0.4,1.2-0.9,2.3-1.3,3.3
					s-0.9,1.9-1.3,2.7c-0.2,0.3-0.3,0.6-0.5,0.9s-0.3,0.6-0.4,0.8s-0.2,0.5-0.4,0.6c-0.1,0.2-0.2,0.3-0.3,0.3
					c-0.1,0-0.2,0.1-0.2,0.1h-0.2c0,0-0.1,0-0.1,0c-0.1,0-0.1-0.1-0.2-0.2c-0.2-0.5-0.4-1.1-0.7-1.8s-0.5-1.4-0.7-2.2
					s-0.5-1.6-0.8-2.4L36,7.3c-0.2-0.6-0.4-1.3-0.6-2s-0.3-1.3-0.5-1.8s-0.3-1-0.4-1.4c-0.1-0.3-0.2-0.5-0.3-0.7c-0.1,0-0.3,0-0.5,0
					h-0.4c0,0-0.1,0-0.1-0.1c0-0.1,0-0.1,0-0.2c0-0.1,0-0.1,0-0.2c0,0,0-0.1,0.1-0.1h0.3h0.6H35h0.8c0.6,0,1.1,0,1.6,0h0.9
					c0.2,0,0.2,0.1,0.3,0.2s-0.1,0.2-0.3,0.3c-0.2,0-0.3,0-0.5,0h-0.6c0,0.4,0.1,0.8,0.2,1.2c0.1,0.6,0.3,1.2,0.5,2s0.4,1.5,0.7,2.4
					s0.5,1.7,0.8,2.5s0.5,1.5,0.8,2.2c0.2,0.5,0.4,1,0.7,1.5c0.2-0.2,0.4-0.5,0.5-0.8c0.2-0.4,0.4-1,0.7-1.6s0.5-1.4,0.8-2.1
					s0.5-1.5,0.8-2.3c-0.2-0.6-0.3-1.1-0.5-1.7c-0.1-0.5-0.3-1-0.4-1.5s-0.2-0.8-0.3-1.2c-0.1-0.2-0.2-0.4-0.3-0.6h-0.4h-0.4
					c0,0-0.1,0-0.1-0.1c0-0.1,0-0.1,0-0.2V0.8c0-0.1,0-0.1,0-0.1h0.4h0.9h1h0.9c0.7,0,1.2,0,1.6,0l0.7-0.1c0.2,0,0.3,0.1,0.3,0.2
					c0,0.1-0.1,0.3-0.3,0.3c-0.2,0.1-0.4,0.1-0.5,0.1c-0.1,0-0.2,0-0.4,0c-0.1,0-0.2,0.1-0.2,0.2c-0.1,0.2-0.1,0.4-0.1,0.6
					c0,0.4,0.1,0.8,0.2,1.2c0.1,0.5,0.2,1.2,0.4,1.9s0.4,1.5,0.6,2.2s0.5,1.6,0.7,2.3s0.5,1.4,0.7,2c0.2,0.5,0.4,0.9,0.6,1.4
					c0.2-0.2,0.3-0.5,0.5-0.8c0.2-0.4,0.5-1,0.8-1.6s0.6-1.4,0.9-2.2s0.6-1.6,0.8-2.4s0.5-1.5,0.6-2.2c0.1-0.6,0.2-1.2,0.2-1.8
					c0-0.1,0-0.2,0-0.3c0-0.1,0-0.2,0-0.3c0-0.1,0-0.2-0.1-0.2c0-0.1-0.1-0.1-0.1-0.1h-1.3c0,0-0.1-0.1-0.1-0.1l-0.1-0.2
					c0-0.1,0-0.1,0-0.2c0,0,0-0.1,0.1-0.1h0.8c0.4,0,1,0,1.8,0h0.5h0.8h0.8h0.4c0.2,0,0.3,0.1,0.3,0.2c0,0.1-0.2,0.2-0.3,0.3
					c-0.1,0-0.1,0-0.2,0h-0.3c-0.1,0-0.2,0-0.3,0c-0.1,0-0.1,0-0.2,0.1c-0.4,0.9-0.8,1.9-1.2,3s-1,2.2-1.5,3.3s-1,2.2-1.5,3.2
					s-1,1.9-1.3,2.6c-0.2,0.3-0.4,0.6-0.5,1s-0.3,0.6-0.4,0.8s-0.2,0.5-0.3,0.6c-0.1,0.1-0.2,0.2-0.3,0.3c-0.1,0-0.2,0.1-0.2,0h-0.2
					c-0.1,0-0.1,0-0.2,0c-0.1,0-0.1-0.1-0.1-0.2c-0.2-0.5-0.4-1-0.6-1.7s-0.5-1.3-0.7-2.1l-0.8-2.3C44.5,9.2,44.2,8.4,44,7.6L44,7.6
					z M55.3,15.6h0.5c0.1,0,0.3,0,0.4-0.1c0.1,0,0.2-0.1,0.3-0.2c0.1-0.1,0.2-0.3,0.2-0.4c0.1-0.3,0.1-0.6,0.2-0.9
					c0-0.4,0.1-0.9,0.1-1.5c0-0.6,0-1.4,0.1-2.3s0-2,0-3.3c0-1.1,0-2,0-2.7c0-0.7-0.1-1.3-0.1-1.7c0-0.3-0.1-0.6-0.2-0.9
					c-0.1-0.2-0.2-0.3-0.3-0.3H55c0,0,0,0-0.1-0.1c0-0.1,0-0.1,0-0.2c0-0.1,0-0.1,0-0.2c0-0.1,0.1-0.1,0.1-0.1c0,0,0,0,0,0H57
					c0.6,0,1.1,0,1.5,0c0.4,0,0.8-0.1,1.1-0.2c0.2,0,0.3,0,0.3,0.2s0,0.2,0,0.4s0,0.4,0,0.6s0,0.5-0.1,0.7s0,0.4,0,0.5
					c0.3-0.3,0.5-0.5,0.8-0.7C61.1,2,61.5,1.7,62,1.5c0.5-0.3,1.1-0.5,1.7-0.7c0.6-0.2,1.3-0.3,1.9-0.3c0.8,0,1.6,0.1,2.3,0.3
					c0.7,0.2,1.3,0.5,1.9,1c0.5,0.4,0.9,1,1.2,1.6c0.3,0.7,0.5,1.5,0.4,2.3c0,0.6-0.1,1.2-0.2,1.8c-0.1,0.6-0.2,1.2-0.4,1.8
					s-0.4,1.2-0.6,1.8s-0.4,1.1-0.6,1.6s-0.3,0.9-0.4,1.3c-0.1,0.3-0.2,0.6-0.2,0.9c0,0.2,0.1,0.3,0.2,0.4c0.2,0.1,0.5,0.2,0.8,0.1
					c0.2,0,0.3,0,0.5,0c0.1,0,0.2-0.1,0.3-0.1c0,0,0.1,0,0.2,0.1c0,0,0,0.1,0,0.1c0,0.1-0.1,0.2-0.1,0.3c-0.1,0.1-0.1,0.2-0.3,0.2
					h-4.3c-0.2,0-0.3-0.1-0.3-0.2c0-0.1,0-0.1,0-0.2c0,0,0.1,0,0.1,0h0.1c0.1,0,0.1-0.1,0.2-0.2c0.2-0.4,0.4-0.8,0.5-1.2
					c0.2-0.7,0.3-1.3,0.4-2c0.1-0.8,0.2-1.6,0.3-2.4C68,9.1,68,8.2,68,7.3c0-0.8-0.1-1.6-0.3-2.4c-0.2-0.6-0.5-1.2-0.9-1.7
					c-0.3-0.4-0.8-0.8-1.3-1c-0.5-0.2-1-0.3-1.5-0.3c-0.5,0-1,0.1-1.4,0.3c-0.5,0.2-0.9,0.4-1.3,0.7c-0.4,0.3-0.7,0.6-1,1
					c-0.3,0.4-0.5,0.8-0.6,1.3c-0.1,0.3-0.1,0.7-0.1,1c0,0.5,0,1.1-0.1,1.7s0,1.3,0,2.1s0,1.4,0,2.1c0,0.4,0,0.8,0,1.2s0,0.7,0.1,1
					s0,0.6,0.1,0.8c0,0.1,0,0.3,0.1,0.4c0,0.1,0.1,0.2,0.2,0.3c0.2,0.1,0.4,0.1,0.6,0.1h0.3c0.1,0,0.2,0,0.3,0c0.1,0,0.2,0,0.2,0.1
					c0,0.1,0,0.1,0,0.2c0,0,0,0.1-0.1,0.1c0,0.1-0.1,0.1-0.2,0.1h-1.1h-0.8h-1.7h-1.1c-0.3,0-0.6,0-0.9,0c-0.3,0-0.4,0-0.5,0
					s-0.1-0.1-0.1-0.2c0-0.1,0-0.2,0.1-0.2c0-0.1,0.1-0.1,0.2-0.1L55.3,15.6z M73.3,1.5c-0.2,0-0.5,0-0.7-0.1
					c-0.1,0-0.1-0.1-0.1-0.2c0-0.1,0-0.2,0-0.3c0-0.1,0.1-0.1,0.2-0.1l0.7,0.1c0.3,0,0.8,0.1,1.3,0.1H76c0.6,0,1.2,0,1.7-0.1
					s1-0.1,1.4-0.2c0.4-0.1,0.7-0.1,1.1-0.2c0.2,0,0.4-0.1,0.6-0.2H81c0.1,0,0.2,0.2,0.2,0.5c0,0.1-0.1,0.2-0.4,0.3
					c-0.3,0.1-0.6,0.2-0.9,0.2l-1,0.2c-0.2,0-0.4,0.1-0.7,0.2C78.1,2,78,2.4,78,2.8c-0.1,0.6-0.1,1.4-0.2,2.2s-0.1,1.8-0.1,2.7
					s0,1.9,0,2.7c0,1.3,0,2.4,0,3.2c0,0.5,0,0.9,0.2,1.4c0.1,0,0.2,0,0.2,0h0.4l0.5-0.1l0.6-0.1l0.4-0.1l1.1-0.2
					c0.4-0.1,0.7-0.1,1.1-0.2c0.3-0.1,0.7-0.2,1-0.4c0.3-0.1,0.6-0.3,0.8-0.5l0,0l0,0c0.1-0.1,0.1-0.1,0.2-0.1
					c0.1,0,0.1,0.1,0.2,0.1c0,0.1,0.1,0.1,0.1,0.2c0,0.1,0,0.1-0.1,0.2c-0.1,0.1-0.3,0.3-0.4,0.5c-0.1,0.2-0.2,0.4-0.3,0.6
					c-0.1,0.2-0.2,0.5-0.3,0.6c-0.1,0.2-0.1,0.3-0.1,0.5c0.1,0.1,0.3,0.2,0.4,0.3c0.1,0.1,0.2,0.3,0.2,0.5c0,0.1,0,0.2,0,0.2
					c0,0.1-0.1,0.1-0.2,0.1h-0.2c-0.1,0-0.1-0.1-0.1-0.2c0-0.1,0.1-0.2,0.2-0.3l-0.2-0.1c-0.1-0.1-0.2-0.1-0.3-0.1l-0.8-0.1
					c-0.3,0-0.6-0.1-0.9-0.1s-0.7,0-1.1-0.1h-1.3c-1.1,0-2.1,0-2.9,0.1s-1.5,0.1-2,0.2s-1,0.1-1.4,0.2c-0.3,0.1-0.6,0.1-0.9,0.1
					c-0.2,0-0.3-0.1-0.3-0.3c0-0.1,0-0.2,0.1-0.3c0-0.1,0.2-0.2,0.3-0.1c0.2,0,0.4,0,0.7,0c0.3,0,0.6-0.1,0.8-0.1
					c0.2,0,0.5-0.1,0.7-0.2c0.1,0,0.3-0.1,0.4-0.2c0.1-0.3,0.1-0.5,0.2-0.8c0.1-0.4,0.1-1,0.2-1.6s0.1-1.4,0.1-2.2s0-1.7,0-2.6
					c0-1.2,0-2.3,0-3.1s0-1.4-0.1-1.9c0-0.4,0-0.8,0-1.2c0-0.2-0.1-0.3-0.1-0.5L73.3,1.5z M92.9,16.4c-1.1,0-2.1-0.2-3.1-0.5
					c-0.9-0.3-1.8-0.8-2.5-1.4c-0.7-0.6-1.3-1.4-1.7-2.3c-0.4-1-0.6-2-0.6-3.1c0-1.2,0.2-2.4,0.7-3.5c0.5-1,1.1-1.9,1.9-2.7
					c0.8-0.7,1.7-1.3,2.7-1.7c1-0.4,2.1-0.6,3.2-0.6c1,0,2,0.2,3,0.5c0.9,0.3,1.8,0.7,2.5,1.3c0.7,0.6,1.3,1.3,1.7,2.2
					c0.4,0.9,0.7,2,0.6,3c0,1.1-0.2,2.2-0.6,3.2c-0.4,1-1,2-1.8,2.8c-0.8,0.8-1.7,1.5-2.7,2C95.3,16.1,94.1,16.4,92.9,16.4z
					 M93.5,15.6c0.7,0,1.5-0.2,2.1-0.6c0.6-0.4,1.1-0.9,1.5-1.5c0.4-0.7,0.7-1.4,0.9-2.2c0.2-0.9,0.3-1.8,0.3-2.6c0-1-0.1-2-0.4-3
					c-0.2-0.8-0.6-1.6-1.1-2.3c-0.4-0.6-1-1.1-1.6-1.5c-0.6-0.3-1.3-0.5-1.9-0.5c-0.7,0-1.5,0.2-2.1,0.5c-0.6,0.4-1.2,0.8-1.6,1.4
					c-0.5,0.7-0.8,1.4-1,2.2c-0.2,0.9-0.3,1.8-0.3,2.8c0,1.1,0.1,2.2,0.4,3.3c0.2,0.8,0.7,1.6,1.2,2.3c0.5,0.6,1,1,1.7,1.4
					C92.1,15.5,92.8,15.6,93.5,15.6z M107.7,1.5h-1l-1.4-0.1c-0.5,0-1-0.1-1.4-0.1s-0.8-0.1-1.1-0.1c-0.1-0.1-0.1-0.1-0.2-0.2
					c-0.1-0.1-0.1-0.2-0.1-0.3c0-0.1,0.1-0.2,0.2-0.3c0.6,0.2,1.2,0.3,1.8,0.4c0.7,0.1,1.3,0.2,1.9,0.2s1.2,0.1,1.6,0.1h1.1
					c0.6,0,1.1,0,1.7,0s1.1-0.1,1.6-0.1s0.9-0.1,1.2-0.1c0.2,0,0.4,0,0.6-0.1c0,0,0.1,0,0.1,0.1c0.1,0,0.1,0.1,0.1,0.2
					c0,0.1-0.1,0.3-0.2,0.3c-0.2,0.1-0.4,0.2-0.6,0.2c-0.3,0-0.6,0.1-0.9,0.1l-1.2,0.1c-0.1,0-0.1,0.1-0.1,0.2
					c0,0.5,0.1,1.1,0.2,1.6c0.1,0.7,0.2,1.6,0.4,2.5s0.3,2,0.6,3s0.4,2,0.6,3s0.4,1.8,0.6,2.5c0.1,0.5,0.3,1,0.5,1.4l0.2,0.1h0.3
					h0.5c0.1,0,0.2,0,0.3,0c0,0,0.1,0,0.1,0.2c0,0.1,0,0.2,0,0.2c0,0.1,0,0.1-0.1,0.1c0,0,0,0,0,0h-0.3c-0.2,0-0.4,0-0.5,0h-0.9
					h-1.4h-0.6h-0.6h-0.5h-0.3c0,0-0.1,0-0.1-0.1c0-0.1,0-0.1,0-0.2c0-0.1,0-0.1,0-0.2c0,0,0.1-0.1,0.1-0.1c0.2,0,0.3,0,0.5,0
					c0.2,0,0.3-0.1,0.3-0.2c0-0.3-0.1-0.5-0.1-0.8c-0.1-0.4-0.2-0.9-0.3-1.5c-0.1-0.6-0.2-1.2-0.3-1.9s-0.2-1.3-0.3-1.9
					c-0.3-0.1-0.7-0.1-1-0.1c-0.4,0-0.8,0-1.2,0s-1,0-1.4,0.1c-0.3,0-0.7,0.1-1,0.2c-0.1,0.3-0.2,0.6-0.2,1s-0.2,0.7-0.2,1.1
					s-0.2,0.7-0.2,1c-0.1,0.3-0.1,0.7-0.1,1c0,0.4,0.1,0.9,0.4,1.2c0.2,0.3,0.6,0.4,0.9,0.4c0.2,0,0.5,0,0.7,0h0.2
					c0.1,0,0.2,0,0.2,0.1c0,0.1,0,0.1-0.1,0.1c-0.1,0.1-0.2,0.1-0.2,0.2l-0.5,0.4c-0.2,0.2-0.5,0.2-0.8,0.2h-0.3l-0.7,0
					c-0.3,0-0.5,0-0.8-0.1h-0.8H102h-0.5c-0.1,0-0.2,0-0.3,0h-0.1c0,0-0.1,0-0.1-0.1c0,0,0-0.1,0-0.1c0-0.1,0-0.1,0.1-0.1
					c0.2-0.1,0.4-0.2,0.6-0.3c0.3-0.2,0.6-0.5,0.8-0.9c0.3-0.5,0.5-1.1,0.8-1.6c0.3-0.6,0.5-1.3,0.7-1.9c0.2-0.8,0.5-1.7,0.7-2.6
					s0.5-2,0.7-3s0.4-2.1,0.5-3L107.7,1.5z M109.9,8.1c-0.1-0.4-0.2-0.8-0.2-1.3s-0.2-1.1-0.3-1.6l-0.3-1.6
					c-0.1-0.5-0.2-0.8-0.2-1.1c0-0.2-0.1-0.5-0.2-0.7c-0.1-0.1-0.1-0.2-0.2-0.2S108.1,1.8,108,2c-0.2,0.3-0.4,0.6-0.5,0.9
					c-0.2,0.4-0.3,0.8-0.5,1.3s-0.3,1-0.5,1.5s-0.3,1.1-0.4,1.6s-0.2,1-0.3,1.4l0.9-0.2l1.1-0.2l1.2-0.2
					C109.2,8.2,109.6,8.2,109.9,8.1z M119.1,15.7c-0.4,0.2-0.8,0.4-1.2,0.6c-0.5,0.2-1,0.3-1.6,0.3c-0.2,0-0.5,0-0.7-0.1
					c-0.1-0.1-0.2-0.2-0.2-0.3c0-0.1,0-0.2,0.1-0.3c0-0.1,0.1-0.2,0.2-0.2c0,0,0.1,0,0.1,0.1c0.1,0.1,0.2,0.2,0.4,0.2h0.6
					c0.3,0,0.6-0.1,0.8-0.3c0.2-0.2,0.4-0.4,0.5-0.7c0.1-0.3,0.1-0.6,0.2-0.9c0.1-0.4,0.1-0.9,0.1-1.5s0.1-1.3,0.1-2s0-1.5,0-2.3
					c0-1.9-0.1-3.3-0.2-4.3c0-0.6-0.1-1.2-0.4-1.8c-0.2-0.1-0.4-0.2-0.6-0.2c-0.2,0-0.5-0.1-0.7-0.1H116c-0.1,0-0.2,0-0.2-0.1
					c0-0.1-0.1-0.1-0.1-0.2c0-0.3,0.1-0.4,0.3-0.4h0.5l0.9,0.1h1h1c0.3,0,0.7-0.1,1-0.2l1-0.4c0.4-0.2,0.7-0.3,1.1-0.4
					c0.5-0.1,0.9-0.2,1.4-0.2c1.2,0,2.4,0.2,3.6,0.6c0.9,0.3,1.8,0.9,2.5,1.6c0.6,0.7,1.1,1.5,1.4,2.3c0.3,0.9,0.5,1.8,0.5,2.7
					c0,1.1-0.2,2.3-0.6,3.3c-0.4,1.1-0.9,2.1-1.7,3c-0.7,0.9-1.6,1.7-2.6,2.3c-1.1,0.6-2.2,0.8-3.4,0.8c-0.3,0-0.7,0-1-0.1
					c-0.4,0-0.8-0.1-1.2-0.2s-0.8-0.2-1.2-0.3C119.7,15.9,119.4,15.8,119.1,15.7z M124.1,15.7c0.8,0,1.5-0.2,2.2-0.6
					c0.6-0.4,1.2-0.9,1.6-1.6c0.4-0.7,0.7-1.5,0.9-2.3c0.2-0.9,0.3-1.7,0.3-2.6c0-1-0.1-1.9-0.4-2.8c-0.2-0.9-0.6-1.7-1.1-2.5
					c-0.5-0.7-1.1-1.3-1.8-1.8c-0.8-0.5-1.6-0.7-2.5-0.7c-0.2,0-0.4,0-0.6,0c-0.2,0-0.5,0.1-0.7,0.2c-0.2,0.1-0.4,0.2-0.6,0.4
					c-0.2,0.2-0.3,0.4-0.3,0.6c-0.1,0.3-0.1,0.5-0.1,0.8c0,0.3-0.1,0.7-0.1,1.1s-0.1,0.9-0.1,1.4s0,1,0,1.6c0,1.2,0,2.2,0,3.1
					s0,1.5,0,2s0,0.9,0.1,1.1c0,0.2,0,0.3,0.1,0.5c0,0.3,0.1,0.5,0.3,0.7c0.2,0.2,0.4,0.5,0.6,0.6c0.3,0.2,0.6,0.4,0.9,0.5
					C123.3,15.6,123.7,15.7,124.1,15.7L124.1,15.7z M156.4,7.7c0,1-0.4,2-1.1,2.7c-0.9,1-2,1.4-4,1.4h-2.1v4.2h-2.1V3.7h4.6
					C154.5,3.7,156.4,5.4,156.4,7.7L156.4,7.7z M149.3,9.7h2.5c1.5,0,2.4-0.7,2.4-1.9s-0.9-2-2.4-2h-2.5V9.7z M159.5,16.1V3.7h4.6
					c3.1,0.1,5.6,2.7,5.5,5.8c0,0,0,0.1,0,0.1v1c0,1.4-0.5,2.8-1.5,3.9c-1.1,1.1-2.6,1.7-4.2,1.6L159.5,16.1z M163.9,13.9
					c1,0.1,1.9-0.2,2.6-0.9c0.6-0.7,0.9-1.6,0.9-2.5v-1c0-1-0.4-1.9-1-2.7c-0.6-0.7-1.6-1.1-2.5-1h-2.3V14L163.9,13.9z M172.6,16.1
					V3.7h9.7v2.2h-7.6v3h3.9v2.1h-3.9v5.2L172.6,16.1z"/>
			</defs>
			<clipPath id="SVGID_2_">
				<use xlink:href="#SVGID_1_"  style="overflow:visible;"/>
			</clipPath>
			<g class="st0">
				<g>
					<defs>
						<rect id="SVGID_3_" x="-312.4" y="-1155.9" width="723.2" height="1525.3"/>
					</defs>
					<clipPath id="SVGID_4_">
						<use xlink:href="#SVGID_3_"  style="overflow:visible;"/>
					</clipPath>
					<g class="st1">
						<g transform="translate(-312.36 -1192.74) scale(0.36)">
							
								<image style="overflow:visible;enable-background:new    ;" width="2009" height="4237" id="image_7_" xlink:href="FDE5818FF3E66B51.png"  transform="matrix(0.36 0 0 0.36 -312.36 -1155.894)">
							</image>
						</g>
					</g>
				</g>
			</g>
		</g>
	</g>
</g>
</svg>
